<?xml version="1.0" encoding="UTF-8" standalone="no"?><svg xmlns="http://www.w3.org/2000/svg" xmlns:xlink="http://www.w3.org/1999/xlink" contentScriptType="application/ecmascript" contentStyleType="text/css" height="623px" preserveAspectRatio="none" style="width:1049px;height:623px;" version="1.1" viewBox="0 0 1049 623" width="1049px" zoomAndPan="magnify"><defs><filter height="300%" id="f15ut9dm80f8sw" width="300%" x="-1" y="-1"><feGaussianBlur result="blurOut" stdDeviation="2.0"/><feColorMatrix in="blurOut" result="blurOut2" type="matrix" values="0 0 0 0 0 0 0 0 0 0 0 0 0 0 0 0 0 0 .4 0"/><feOffset dx="4.0" dy="4.0" in="blurOut2" result="blurOut3"/><feBlend in="SourceGraphic" in2="blurOut3" mode="normal"/></filter></defs><g><text fill="#000000" font-family="sans-serif" font-size="18" lengthAdjust="spacingAndGlyphs" textLength="47" x="41.5" y="29.4531">EOEP</text><line style="stroke: #000000; stroke-width: 2.0;" x1="10" x2="10" y1="12.7451" y2="611.2451"/><ellipse cx="65.5" cy="43.6982" fill="#000000" filter="url(#f15ut9dm80f8sw)" rx="10" ry="10" style="stroke: none; stroke-width: 1.0;"/><rect fill="#FEFECE" filter="url(#f15ut9dm80f8sw)" height="47.9375" rx="12.5" ry="12.5" style="stroke: #A80036; stroke-width: 1.5;" width="91" x="20" y="73.6982"/><text fill="#000000" font-family="sans-serif" font-size="12" lengthAdjust="spacingAndGlyphs" textLength="71" x="30" y="94.8369">Proceso de</text><text fill="#000000" font-family="sans-serif" font-size="12" lengthAdjust="spacingAndGlyphs" textLength="67" x="30" y="108.8057">evaluación</text><rect fill="#FEFECE" filter="url(#f15ut9dm80f8sw)" height="33.9688" rx="12.5" ry="12.5" style="stroke: #A80036; stroke-width: 1.5;" width="67" x="32" y="141.6357"/><text fill="#000000" font-family="sans-serif" font-size="12" lengthAdjust="spacingAndGlyphs" textLength="47" x="42" y="162.7744">Informe</text><rect fill="#FEFECE" filter="url(#f15ut9dm80f8sw)" height="33.9688" rx="12.5" ry="12.5" style="stroke: #A80036; stroke-width: 1.5;" width="79" x="26" y="195.6045"/><text fill="#000000" font-family="sans-serif" font-size="12" lengthAdjust="spacingAndGlyphs" textLength="59" x="36" y="216.7432">Dictámen</text><text fill="#000000" font-family="sans-serif" font-size="18" lengthAdjust="spacingAndGlyphs" textLength="47" x="221.5" y="29.4531">USMI</text><line style="stroke: #000000; stroke-width: 2.0;" x1="120" x2="120" y1="12.7451" y2="611.2451"/><line style="stroke: #A80036; stroke-width: 1.5;" x1="198.5" x2="360" y1="249.5732" y2="249.5732"/><rect fill="#FEFECE" filter="url(#f15ut9dm80f8sw)" height="47.9375" rx="12.5" ry="12.5" style="stroke: #A80036; stroke-width: 1.5;" width="100" x="148.5" y="269.5732"/><text fill="#000000" font-family="sans-serif" font-size="12" lengthAdjust="spacingAndGlyphs" textLength="80" x="158.5" y="290.7119">Derivación al</text><text fill="#000000" font-family="sans-serif" font-size="12" lengthAdjust="spacingAndGlyphs" textLength="53" x="158.5" y="304.6807">pediatra</text><rect fill="#FEFECE" filter="url(#f15ut9dm80f8sw)" height="33.9688" rx="12.5" ry="12.5" style="stroke: #A80036; stroke-width: 1.5;" width="137" x="130" y="352.5107"/><text fill="#000000" font-family="sans-serif" font-size="12" lengthAdjust="spacingAndGlyphs" textLength="117" x="140" y="373.6494">Diagnóstico clínico</text><line style="stroke: #A80036; stroke-width: 1.5;" x1="198.5" x2="360" y1="406.4795" y2="406.4795"/><text fill="#000000" font-family="sans-serif" font-size="18" lengthAdjust="spacingAndGlyphs" textLength="92" x="462" y="29.4531">Inspección</text><line style="stroke: #000000; stroke-width: 2.0;" x1="370" x2="370" y1="12.7451" y2="611.2451"/><polygon fill="#FBFB77" filter="url(#f15ut9dm80f8sw)" points="530,307.8936,530,348.1592,626,348.1592,626,317.8936,616,307.8936,530,307.8936" style="stroke: #A80036; stroke-width: 1.0;"/><polygon fill="#FBFB77" points="530,307.8936,530,324.0264,510,328.0264,530,332.0264,530,348.1592,626,348.1592,626,317.8936,616,307.8936,530,307.8936" style="stroke: #A80036; stroke-width: 1.0;"/><line style="stroke: #A80036; stroke-width: 1.0;" x1="616" x2="616" y1="307.8936" y2="317.8936"/><line style="stroke: #A80036; stroke-width: 1.0;" x1="626" x2="616" y1="317.8936" y2="317.8936"/><text fill="#000000" font-family="sans-serif" font-size="13" lengthAdjust="spacingAndGlyphs" textLength="75" x="536" y="324.9604">Con apoyos</text><text fill="#000000" font-family="sans-serif" font-size="13" lengthAdjust="spacingAndGlyphs" textLength="58" x="536" y="340.0933">PT y/o AL</text><rect fill="#FEFECE" filter="url(#f15ut9dm80f8sw)" height="33.9688" rx="12.5" ry="12.5" style="stroke: #A80036; stroke-width: 1.5;" width="130" x="380" y="311.042"/><text fill="#000000" font-family="sans-serif" font-size="12" lengthAdjust="spacingAndGlyphs" textLength="110" x="390" y="332.1807">Apueba dictámen</text><text fill="#000000" font-family="sans-serif" font-size="18" lengthAdjust="spacingAndGlyphs" textLength="153" x="708" y="29.4531">Centro educativo</text><line style="stroke: #000000; stroke-width: 2.0;" x1="646" x2="646" y1="12.7451" y2="611.2451"/><polygon fill="#FBFB77" filter="url(#f15ut9dm80f8sw)" points="776,416.4795,776,517.2764,903,517.2764,903,426.4795,893,416.4795,776,416.4795" style="stroke: #A80036; stroke-width: 1.0;"/><polygon fill="#FBFB77" points="776,416.4795,776,462.8779,756,466.8779,776,470.8779,776,517.2764,903,517.2764,903,426.4795,893,416.4795,776,416.4795" style="stroke: #A80036; stroke-width: 1.0;"/><line style="stroke: #A80036; stroke-width: 1.0;" x1="893" x2="893" y1="416.4795" y2="426.4795"/><line style="stroke: #A80036; stroke-width: 1.0;" x1="903" x2="893" y1="426.4795" y2="426.4795"/><text fill="#000000" font-family="sans-serif" font-size="13" lengthAdjust="spacingAndGlyphs" textLength="102" x="782" y="433.5464">Con diagnóstico</text><text fill="#000000" font-family="sans-serif" font-size="13" lengthAdjust="spacingAndGlyphs" textLength="39" x="782" y="448.6792">clínico</text><text fill="#000000" font-family="sans-serif" font-size="13" lengthAdjust="spacingAndGlyphs" textLength="71" x="782" y="463.812">y dictámen</text><text fill="#000000" font-family="sans-serif" font-size="13" lengthAdjust="spacingAndGlyphs" textLength="61" x="782" y="478.9448">aprobado</text><text fill="#000000" font-family="sans-serif" font-size="13" lengthAdjust="spacingAndGlyphs" textLength="36" x="782" y="494.0776">por la</text><text fill="#000000" font-family="sans-serif" font-size="13" lengthAdjust="spacingAndGlyphs" textLength="67" x="782" y="509.2104">inspección</text><rect fill="#FEFECE" filter="url(#f15ut9dm80f8sw)" height="47.9375" rx="12.5" ry="12.5" style="stroke: #A80036; stroke-width: 1.5;" width="100" x="656" y="442.9092"/><text fill="#000000" font-family="sans-serif" font-size="12" lengthAdjust="spacingAndGlyphs" textLength="65" x="666" y="464.0479">Solicitud a</text><text fill="#000000" font-family="sans-serif" font-size="12" lengthAdjust="spacingAndGlyphs" textLength="80" x="666" y="478.0166">la SUPE (TIS)</text><text fill="#000000" font-family="sans-serif" font-size="18" lengthAdjust="spacingAndGlyphs" textLength="47" x="956.5" y="29.4531">SUPE</text><line style="stroke: #000000; stroke-width: 2.0;" x1="923" x2="923" y1="12.7451" y2="611.2451"/><rect fill="#FEFECE" filter="url(#f15ut9dm80f8sw)" height="33.9688" rx="12.5" ry="12.5" style="stroke: #A80036; stroke-width: 1.5;" width="95" x="933" y="537.2764"/><text fill="#000000" font-family="sans-serif" font-size="12" lengthAdjust="spacingAndGlyphs" textLength="75" x="943" y="558.415">Aprueba TIS</text><ellipse cx="980.5" cy="601.2451" fill="none" filter="url(#f15ut9dm80f8sw)" rx="10" ry="10" style="stroke: #000000; stroke-width: 1.0;"/><ellipse cx="981" cy="601.7451" fill="#000000" filter="url(#f15ut9dm80f8sw)" rx="6" ry="6" style="stroke: none; stroke-width: 1.0;"/><line style="stroke: #000000; stroke-width: 2.0;" x1="1037" x2="1037" y1="12.7451" y2="611.2451"/><line style="stroke: #A80036; stroke-width: 1.5;" x1="65.5" x2="65.5" y1="53.6982" y2="73.6982"/><polygon fill="#A80036" points="61.5,63.6982,65.5,73.6982,69.5,63.6982,65.5,67.6982" style="stroke: #A80036; stroke-width: 1.0;"/><line style="stroke: #A80036; stroke-width: 1.5;" x1="65.5" x2="65.5" y1="121.6357" y2="141.6357"/><polygon fill="#A80036" points="61.5,131.6357,65.5,141.6357,69.5,131.6357,65.5,135.6357" style="stroke: #A80036; stroke-width: 1.0;"/><line style="stroke: #A80036; stroke-width: 1.5;" x1="65.5" x2="65.5" y1="175.6045" y2="195.6045"/><polygon fill="#A80036" points="61.5,185.6045,65.5,195.6045,69.5,185.6045,65.5,189.6045" style="stroke: #A80036; stroke-width: 1.0;"/><line style="stroke: #A80036; stroke-width: 1.5;" x1="198.5" x2="198.5" y1="317.5107" y2="352.5107"/><polygon fill="#A80036" points="194.5,342.5107,198.5,352.5107,202.5,342.5107,198.5,346.5107" style="stroke: #A80036; stroke-width: 1.0;"/><line style="stroke: #A80036; stroke-width: 1.5;" x1="198.5" x2="198.5" y1="251.0732" y2="269.5732"/><polygon fill="#A80036" points="194.5,259.5732,198.5,269.5732,202.5,259.5732,198.5,263.5732" style="stroke: #A80036; stroke-width: 1.0;"/><line style="stroke: #A80036; stroke-width: 1.5;" x1="198.5" x2="198.5" y1="386.4795" y2="406.4795"/><polygon fill="#A80036" points="194.5,396.4795,198.5,406.4795,202.5,396.4795,198.5,400.4795" style="stroke: #A80036; stroke-width: 1.0;"/><line style="stroke: #A80036; stroke-width: 1.5;" x1="980.5" x2="980.5" y1="571.2451" y2="591.2451"/><polygon fill="#A80036" points="976.5,581.2451,980.5,591.2451,984.5,581.2451,980.5,585.2451" style="stroke: #A80036; stroke-width: 1.0;"/><line style="stroke: #A80036; stroke-width: 1.5;" x1="360" x2="360" y1="251.0732" y2="254.5732"/><line style="stroke: #A80036; stroke-width: 1.5;" x1="360" x2="445" y1="254.5732" y2="254.5732"/><line style="stroke: #A80036; stroke-width: 1.5;" x1="445" x2="445" y1="254.5732" y2="311.042"/><polygon fill="#A80036" points="441,301.042,445,311.042,449,301.042,445,305.042" style="stroke: #A80036; stroke-width: 1.0;"/><line style="stroke: #A80036; stroke-width: 1.5;" x1="445" x2="445" y1="345.0107" y2="392.4795"/><line style="stroke: #A80036; stroke-width: 1.5;" x1="445" x2="360" y1="392.4795" y2="392.4795"/><line style="stroke: #A80036; stroke-width: 1.5;" x1="360" x2="360" y1="392.4795" y2="406.4795"/><polygon fill="#A80036" points="356,396.4795,360,406.4795,364,396.4795,360,400.4795" style="stroke: #A80036; stroke-width: 1.0;"/><line style="stroke: #A80036; stroke-width: 1.5;" x1="65.5" x2="65.5" y1="229.5732" y2="234.5732"/><line style="stroke: #A80036; stroke-width: 1.5;" x1="65.5" x2="335.5" y1="234.5732" y2="234.5732"/><line style="stroke: #A80036; stroke-width: 1.5;" x1="335.5" x2="335.5" y1="234.5732" y2="249.5732"/><polygon fill="#A80036" points="331.5,239.5732,335.5,249.5732,339.5,239.5732,335.5,243.5732" style="stroke: #A80036; stroke-width: 1.0;"/><line style="stroke: #A80036; stroke-width: 1.5;" x1="335.5" x2="335.5" y1="407.9795" y2="412.1943"/><line style="stroke: #A80036; stroke-width: 1.5;" x1="335.5" x2="706" y1="412.1943" y2="412.1943"/><line style="stroke: #A80036; stroke-width: 1.5;" x1="706" x2="706" y1="412.1943" y2="442.9092"/><polygon fill="#A80036" points="702,432.9092,706,442.9092,710,432.9092,706,436.9092" style="stroke: #A80036; stroke-width: 1.0;"/><line style="stroke: #A80036; stroke-width: 1.5;" x1="706" x2="706" y1="490.8467" y2="521.5615"/><line style="stroke: #A80036; stroke-width: 1.5;" x1="706" x2="980.5" y1="521.5615" y2="521.5615"/><line style="stroke: #A80036; stroke-width: 1.5;" x1="980.5" x2="980.5" y1="521.5615" y2="537.2764"/><polygon fill="#A80036" points="976.5,527.2764,980.5,537.2764,984.5,527.2764,980.5,531.2764" style="stroke: #A80036; stroke-width: 1.0;"/><!--
@startuml
|EOEP|
start
:Proceso de 
evaluación;
:Informe;
:Dictámen;
split
|USMI|
:Derivación al 
pediatra;
:Diagnóstico clínico;
split again
|Inspección|
:Apueba dictámen;
note right
Con apoyos
PT y/o AL
end note
|Centro educativo|
end split
:Solicitud a 
la SUPE (TIS);
note right
Con diagnóstico 
clínico 
y dictámen 
aprobado
por la 
inspección
end note
|SUPE|
:Aprueba TIS;
stop
@enduml

PlantUML version 1.2017.15(Mon Jul 03 18:45:34 CEST 2017)
(GPL source distribution)
Java Runtime: Java(TM) SE Runtime Environment
JVM: Java HotSpot(TM) 64-Bit Server VM
Java Version: 1.8.0_201-b09
Operating System: Linux
OS Version: 4.15.0-72-generic
Default Encoding: UTF-8
Language: en
Country: US
--></g></svg>