<?xml version="1.0" encoding="UTF-8" standalone="no"?><svg xmlns="http://www.w3.org/2000/svg" xmlns:xlink="http://www.w3.org/1999/xlink" contentScriptType="application/ecmascript" contentStyleType="text/css" height="810px" preserveAspectRatio="none" style="width:1020px;height:810px;" version="1.1" viewBox="0 0 1020 810" width="1020px" zoomAndPan="magnify"><defs><filter height="300%" id="f1j9ob5nyg4878" width="300%" x="-1" y="-1"><feGaussianBlur result="blurOut" stdDeviation="2.0"/><feColorMatrix in="blurOut" result="blurOut2" type="matrix" values="0 0 0 0 0 0 0 0 0 0 0 0 0 0 0 0 0 0 .4 0"/><feOffset dx="4.0" dy="4.0" in="blurOut2" result="blurOut3"/><feBlend in="SourceGraphic" in2="blurOut3" mode="normal"/></filter></defs><g><text fill="#000000" font-family="sans-serif" font-size="18" lengthAdjust="spacingAndGlyphs" textLength="49" x="117" y="29.4531">Tutor</text><line style="stroke: #000000; stroke-width: 2.0;" x1="10" x2="10" y1="12.7451" y2="798.3857"/><ellipse cx="142" cy="43.6982" fill="#000000" filter="url(#f1j9ob5nyg4878)" rx="10" ry="10" style="stroke: none; stroke-width: 1.0;"/><rect fill="#FEFECE" filter="url(#f1j9ob5nyg4878)" height="33.9688" rx="12.5" ry="12.5" style="stroke: #A80036; stroke-width: 1.5;" width="139" x="72.5" y="88.6982"/><text fill="#000000" font-family="sans-serif" font-size="12" lengthAdjust="spacingAndGlyphs" textLength="119" x="82.5" y="109.8369">Medidas ordinarias</text><rect fill="#AAAAFF" filter="url(#f1j9ob5nyg4878)" height="33.9688" rx="12.5" ry="12.5" style="stroke: #A80036; stroke-width: 1.5;" width="188" x="48" y="364.5732"/><text fill="#000000" font-family="sans-serif" font-size="12" lengthAdjust="spacingAndGlyphs" textLength="168" x="58" y="385.7119">Entrevista tutor-orientador</text><rect fill="#AAAAFF" filter="url(#f1j9ob5nyg4878)" height="33.9688" rx="12.5" ry="12.5" style="stroke: #A80036; stroke-width: 1.5;" width="244" x="20" y="640.4482"/><text fill="#000000" font-family="sans-serif" font-size="12" lengthAdjust="spacingAndGlyphs" textLength="224" x="30" y="661.5869">Devolución a tutor/equipo de apoyo</text><text fill="#000000" font-family="sans-serif" font-size="18" lengthAdjust="spacingAndGlyphs" textLength="62" x="395" y="29.4531">Familia</text><line style="stroke: #000000; stroke-width: 2.0;" x1="273" x2="273" y1="12.7451" y2="798.3857"/><rect fill="#FEFECE" filter="url(#f1j9ob5nyg4878)" height="33.9688" rx="12.5" ry="12.5" style="stroke: #A80036; stroke-width: 1.5;" width="143" x="355" y="157.667"/><text fill="#000000" font-family="sans-serif" font-size="12" lengthAdjust="spacingAndGlyphs" textLength="123" x="365" y="178.8057">Informar a la familia</text><rect fill="#AAAAFF" filter="url(#f1j9ob5nyg4878)" height="33.9688" rx="12.5" ry="12.5" style="stroke: #A80036; stroke-width: 1.5;" width="287" x="283" y="433.542"/><text fill="#000000" font-family="sans-serif" font-size="12" lengthAdjust="spacingAndGlyphs" textLength="267" x="293" y="454.6807">Entrevista familia-orientador (autorización)</text><rect fill="#AAAAFF" filter="url(#f1j9ob5nyg4878)" height="33.9688" rx="12.5" ry="12.5" style="stroke: #A80036; stroke-width: 1.5;" width="144" x="354.5" y="571.4795"/><text fill="#000000" font-family="sans-serif" font-size="12" lengthAdjust="spacingAndGlyphs" textLength="124" x="364.5" y="592.6182">Devolución a familia</text><text fill="#000000" font-family="sans-serif" font-size="18" lengthAdjust="spacingAndGlyphs" textLength="144" x="607" y="29.4531">Equipo directivo</text><line style="stroke: #000000; stroke-width: 2.0;" x1="579" x2="579" y1="12.7451" y2="798.3857"/><rect fill="#FEFECE" filter="url(#f1j9ob5nyg4878)" height="33.9688" rx="12.5" ry="12.5" style="stroke: #A80036; stroke-width: 1.5;" width="168" x="595.5" y="226.6357"/><text fill="#000000" font-family="sans-serif" font-size="12" lengthAdjust="spacingAndGlyphs" textLength="148" x="605.5" y="247.7744">Recepción de demanda</text><rect fill="#AAAAFF" filter="url(#f1j9ob5nyg4878)" height="33.9688" rx="12.5" ry="12.5" style="stroke: #A80036; stroke-width: 1.5;" width="181" x="589" y="295.6045"/><text fill="#000000" font-family="sans-serif" font-size="12" lengthAdjust="spacingAndGlyphs" textLength="161" x="599" y="316.7432">Priorización de demandas</text><rect fill="#AAAAFF" height="785.6406" style="stroke: #AAAAFF; stroke-width: 1.0;" width="229" x="779" y="12.7451"/><text fill="#000000" font-family="sans-serif" font-size="18" lengthAdjust="spacingAndGlyphs" textLength="96" x="845.5" y="29.4531">Orientador</text><line style="stroke: #000000; stroke-width: 2.0;" x1="779" x2="779" y1="12.7451" y2="798.3857"/><rect fill="#AAAAFF" filter="url(#f1j9ob5nyg4878)" height="33.9688" rx="12.5" ry="12.5" style="stroke: #A80036; stroke-width: 1.5;" width="87" x="850.5" y="502.5107"/><text fill="#000000" font-family="sans-serif" font-size="12" lengthAdjust="spacingAndGlyphs" textLength="67" x="860.5" y="523.6494">Evaluación</text><rect fill="#AAAAFF" filter="url(#f1j9ob5nyg4878)" height="33.9688" rx="12.5" ry="12.5" style="stroke: #A80036; stroke-width: 1.5;" width="210" x="789" y="709.417"/><text fill="#000000" font-family="sans-serif" font-size="12" lengthAdjust="spacingAndGlyphs" textLength="190" x="799" y="730.5557">Derivaciones y coordinaciones</text><ellipse cx="894" cy="788.3857" fill="none" filter="url(#f1j9ob5nyg4878)" rx="10" ry="10" style="stroke: #000000; stroke-width: 1.0;"/><ellipse cx="894.5" cy="788.8857" fill="#000000" filter="url(#f1j9ob5nyg4878)" rx="6" ry="6" style="stroke: none; stroke-width: 1.0;"/><line style="stroke: #000000; stroke-width: 2.0;" x1="1008" x2="1008" y1="12.7451" y2="798.3857"/><line style="stroke: #A80036; stroke-width: 1.5;" x1="142" x2="142" y1="53.6982" y2="88.6982"/><polygon fill="#A80036" points="138,78.6982,142,88.6982,146,78.6982,142,82.6982" style="stroke: #A80036; stroke-width: 1.0;"/><line style="stroke: #A80036; stroke-width: 1.5;" x1="679.5" x2="679.5" y1="260.6045" y2="295.6045"/><polygon fill="#A80036" points="675.5,285.6045,679.5,295.6045,683.5,285.6045,679.5,289.6045" style="stroke: #A80036; stroke-width: 1.0;"/><line style="stroke: #A80036; stroke-width: 1.5;" x1="894" x2="894" y1="743.3857" y2="778.3857"/><polygon fill="#A80036" points="890,768.3857,894,778.3857,898,768.3857,894,772.3857" style="stroke: #A80036; stroke-width: 1.0;"/><line style="stroke: #A80036; stroke-width: 1.5;" x1="142" x2="142" y1="122.667" y2="140.167"/><line style="stroke: #A80036; stroke-width: 1.5;" x1="142" x2="426.5" y1="140.167" y2="140.167"/><line style="stroke: #A80036; stroke-width: 1.5;" x1="426.5" x2="426.5" y1="140.167" y2="157.667"/><polygon fill="#A80036" points="422.5,147.667,426.5,157.667,430.5,147.667,426.5,151.667" style="stroke: #A80036; stroke-width: 1.0;"/><line style="stroke: #A80036; stroke-width: 1.5;" x1="426.5" x2="426.5" y1="191.6357" y2="209.1357"/><line style="stroke: #A80036; stroke-width: 1.5;" x1="426.5" x2="679.5" y1="209.1357" y2="209.1357"/><line style="stroke: #A80036; stroke-width: 1.5;" x1="679.5" x2="679.5" y1="209.1357" y2="226.6357"/><polygon fill="#A80036" points="675.5,216.6357,679.5,226.6357,683.5,216.6357,679.5,220.6357" style="stroke: #A80036; stroke-width: 1.0;"/><line style="stroke: #A80036; stroke-width: 1.5;" x1="679.5" x2="679.5" y1="329.5732" y2="347.0732"/><line style="stroke: #A80036; stroke-width: 1.5;" x1="679.5" x2="142" y1="347.0732" y2="347.0732"/><line style="stroke: #A80036; stroke-width: 1.5;" x1="142" x2="142" y1="347.0732" y2="364.5732"/><polygon fill="#A80036" points="138,354.5732,142,364.5732,146,354.5732,142,358.5732" style="stroke: #A80036; stroke-width: 1.0;"/><line style="stroke: #A80036; stroke-width: 1.5;" x1="142" x2="142" y1="398.542" y2="416.042"/><line style="stroke: #A80036; stroke-width: 1.5;" x1="142" x2="426.5" y1="416.042" y2="416.042"/><line style="stroke: #A80036; stroke-width: 1.5;" x1="426.5" x2="426.5" y1="416.042" y2="433.542"/><polygon fill="#A80036" points="422.5,423.542,426.5,433.542,430.5,423.542,426.5,427.542" style="stroke: #A80036; stroke-width: 1.0;"/><line style="stroke: #A80036; stroke-width: 1.5;" x1="426.5" x2="426.5" y1="467.5107" y2="485.0107"/><line style="stroke: #A80036; stroke-width: 1.5;" x1="426.5" x2="894" y1="485.0107" y2="485.0107"/><line style="stroke: #A80036; stroke-width: 1.5;" x1="894" x2="894" y1="485.0107" y2="502.5107"/><polygon fill="#A80036" points="890,492.5107,894,502.5107,898,492.5107,894,496.5107" style="stroke: #A80036; stroke-width: 1.0;"/><line style="stroke: #A80036; stroke-width: 1.5;" x1="894" x2="894" y1="536.4795" y2="553.9795"/><line style="stroke: #A80036; stroke-width: 1.5;" x1="894" x2="426.5" y1="553.9795" y2="553.9795"/><line style="stroke: #A80036; stroke-width: 1.5;" x1="426.5" x2="426.5" y1="553.9795" y2="571.4795"/><polygon fill="#A80036" points="422.5,561.4795,426.5,571.4795,430.5,561.4795,426.5,565.4795" style="stroke: #A80036; stroke-width: 1.0;"/><line style="stroke: #A80036; stroke-width: 1.5;" x1="426.5" x2="426.5" y1="605.4482" y2="622.9482"/><line style="stroke: #A80036; stroke-width: 1.5;" x1="426.5" x2="142" y1="622.9482" y2="622.9482"/><line style="stroke: #A80036; stroke-width: 1.5;" x1="142" x2="142" y1="622.9482" y2="640.4482"/><polygon fill="#A80036" points="138,630.4482,142,640.4482,146,630.4482,142,634.4482" style="stroke: #A80036; stroke-width: 1.0;"/><line style="stroke: #A80036; stroke-width: 1.5;" x1="142" x2="142" y1="674.417" y2="691.917"/><line style="stroke: #A80036; stroke-width: 1.5;" x1="142" x2="894" y1="691.917" y2="691.917"/><line style="stroke: #A80036; stroke-width: 1.5;" x1="894" x2="894" y1="691.917" y2="709.417"/><polygon fill="#A80036" points="890,699.417,894,709.417,898,699.417,894,703.417" style="stroke: #A80036; stroke-width: 1.0;"/><!--
@startuml
|Tutor|
start
:Medidas ordinarias;
|Familia|
:Informar a la familia;
|Equipo directivo|
:Recepción de demanda;
#aaaaff:Priorización de demandas;
|Tutor|
#aaaaff:Entrevista tutor-orientador;
|Familia|
#aaaaff:Entrevista familia-orientador (autorización);
|#aaaaff|Orientador|
#aaaaff:Evaluación;
|Familia|
#aaaaff:Devolución a familia;
|Tutor|
#aaaaff:Devolución a tutor/equipo de apoyo;
|Orientador|
#aaaaff:Derivaciones y coordinaciones;
stop
@enduml

PlantUML version 1.2017.15(Mon Jul 03 18:45:34 CEST 2017)
(GPL source distribution)
Java Runtime: Java(TM) SE Runtime Environment
JVM: Java HotSpot(TM) 64-Bit Server VM
Java Version: 1.8.0_201-b09
Operating System: Linux
OS Version: 4.15.0-72-generic
Default Encoding: UTF-8
Language: en
Country: US
--></g></svg>