<?xml version="1.0" encoding="UTF-8" standalone="no"?><svg xmlns="http://www.w3.org/2000/svg" xmlns:xlink="http://www.w3.org/1999/xlink" contentScriptType="application/ecmascript" contentStyleType="text/css" height="279px" preserveAspectRatio="none" style="width:755px;height:279px;" version="1.1" viewBox="0 0 755 279" width="755px" zoomAndPan="magnify"><defs><filter height="300%" id="f1c0xs95kq23ig" width="300%" x="-1" y="-1"><feGaussianBlur result="blurOut" stdDeviation="2.0"/><feColorMatrix in="blurOut" result="blurOut2" type="matrix" values="0 0 0 0 0 0 0 0 0 0 0 0 0 0 0 0 0 0 .4 0"/><feOffset dx="4.0" dy="4.0" in="blurOut2" result="blurOut3"/><feBlend in="SourceGraphic" in2="blurOut3" mode="normal"/></filter></defs><g><!--cluster EOEP--><rect fill="#FFFFFF" filter="url(#f1c0xs95kq23ig)" height="118" style="stroke: #000000; stroke-width: 2.0;" width="170" x="574.5" y="16"/><text fill="#000000" font-family="sans-serif" font-size="14" font-weight="bold" lengthAdjust="spacingAndGlyphs" textLength="40" x="639.5" y="30.9951">EOEP</text><!--entity PTSC--><ellipse cx="717.5" cy="53" fill="#FEFECE" filter="url(#f1c0xs95kq23ig)" rx="8" ry="8" style="stroke: #A80036; stroke-width: 2.0;"/><path d="M717.5,61 L717.5,88 M704.5,69 L730.5,69 M717.5,88 L704.5,103 M717.5,88 L730.5,103 " fill="#FEFECE" filter="url(#f1c0xs95kq23ig)" style="stroke: #A80036; stroke-width: 2.0;"/><text fill="#000000" font-family="sans-serif" font-size="14" lengthAdjust="spacingAndGlyphs" textLength="37" x="699" y="122.9951">PTSC</text><!--entity Orientadora--><ellipse cx="623.5" cy="53" fill="#FEFECE" filter="url(#f1c0xs95kq23ig)" rx="8" ry="8" style="stroke: #A80036; stroke-width: 2.0;"/><path d="M623.5,61 L623.5,88 M610.5,69 L636.5,69 M623.5,88 L610.5,103 M623.5,88 L636.5,103 " fill="#FEFECE" filter="url(#f1c0xs95kq23ig)" style="stroke: #A80036; stroke-width: 2.0;"/><text fill="#000000" font-family="sans-serif" font-size="14" lengthAdjust="spacingAndGlyphs" textLength="81" x="583" y="122.9951">Orientadora</text><!--entity PT--><ellipse cx="401.5" cy="53" fill="#FEFECE" filter="url(#f1c0xs95kq23ig)" rx="8" ry="8" style="stroke: #A80036; stroke-width: 2.0;"/><path d="M401.5,61 L401.5,88 M388.5,69 L414.5,69 M401.5,88 L388.5,103 M401.5,88 L414.5,103 " fill="#FEFECE" filter="url(#f1c0xs95kq23ig)" style="stroke: #A80036; stroke-width: 2.0;"/><text fill="#000000" font-family="sans-serif" font-size="14" lengthAdjust="spacingAndGlyphs" textLength="18" x="392.5" y="122.9951">PT</text><!--entity AL--><ellipse cx="466.5" cy="53" fill="#FEFECE" filter="url(#f1c0xs95kq23ig)" rx="8" ry="8" style="stroke: #A80036; stroke-width: 2.0;"/><path d="M466.5,61 L466.5,88 M453.5,69 L479.5,69 M466.5,88 L453.5,103 M466.5,88 L479.5,103 " fill="#FEFECE" filter="url(#f1c0xs95kq23ig)" style="stroke: #A80036; stroke-width: 2.0;"/><text fill="#000000" font-family="sans-serif" font-size="14" lengthAdjust="spacingAndGlyphs" textLength="16" x="458.5" y="122.9951">AL</text><!--entity Fisio--><ellipse cx="532.5" cy="53" fill="#FEFECE" filter="url(#f1c0xs95kq23ig)" rx="8" ry="8" style="stroke: #A80036; stroke-width: 2.0;"/><path d="M532.5,61 L532.5,88 M519.5,69 L545.5,69 M532.5,88 L519.5,103 M532.5,88 L545.5,103 " fill="#FEFECE" filter="url(#f1c0xs95kq23ig)" style="stroke: #A80036; stroke-width: 2.0;"/><text fill="#000000" font-family="sans-serif" font-size="14" lengthAdjust="spacingAndGlyphs" textLength="31" x="517" y="122.9951">Fisio</text><!--entity ATE III--><ellipse cx="401.5" cy="196" fill="#FEFECE" filter="url(#f1c0xs95kq23ig)" rx="8" ry="8" style="stroke: #A80036; stroke-width: 2.0;"/><path d="M401.5,204 L401.5,231 M388.5,212 L414.5,212 M401.5,231 L388.5,246 M401.5,231 L414.5,246 " fill="#FEFECE" filter="url(#f1c0xs95kq23ig)" style="stroke: #A80036; stroke-width: 2.0;"/><text fill="#000000" font-family="sans-serif" font-size="14" lengthAdjust="spacingAndGlyphs" textLength="40" x="381.5" y="265.9951">ATE III</text><!--entity Jefa de estudios--><ellipse cx="511.5" cy="196" fill="#FEFECE" filter="url(#f1c0xs95kq23ig)" rx="8" ry="8" style="stroke: #A80036; stroke-width: 2.0;"/><path d="M511.5,204 L511.5,231 M498.5,212 L524.5,212 M511.5,231 L498.5,246 M511.5,231 L524.5,246 " fill="#FEFECE" filter="url(#f1c0xs95kq23ig)" style="stroke: #A80036; stroke-width: 2.0;"/><text fill="#000000" font-family="sans-serif" font-size="14" lengthAdjust="spacingAndGlyphs" textLength="110" x="456.5" y="265.9951">Jefa de estudios</text><!--entity TIS--><ellipse cx="209.5" cy="53" fill="#FEFECE" filter="url(#f1c0xs95kq23ig)" rx="8" ry="8" style="stroke: #A80036; stroke-width: 2.0;"/><path d="M209.5,61 L209.5,88 M196.5,69 L222.5,69 M209.5,88 L196.5,103 M209.5,88 L222.5,103 " fill="#FEFECE" filter="url(#f1c0xs95kq23ig)" style="stroke: #A80036; stroke-width: 2.0;"/><text fill="#000000" font-family="sans-serif" font-size="14" lengthAdjust="spacingAndGlyphs" textLength="21" x="199" y="122.9951">TIS</text><polygon fill="#FBFB77" filter="url(#f1c0xs95kq23ig)" points="259.5,64.5,259.5,104.7656,351.5,104.7656,351.5,74.5,341.5,64.5,259.5,64.5" style="stroke: #A80036; stroke-width: 1.0;"/><polygon fill="#FBFB77" points="259.5,64.5,259.5,80.5,224.5,84.5,259.5,88.5,259.5,104.7656,351.5,104.7656,351.5,74.5,341.5,64.5,259.5,64.5" style="stroke: #A80036; stroke-width: 1.0;"/><line style="stroke: #A80036; stroke-width: 1.0;" x1="341.5" x2="341.5" y1="64.5" y2="74.5"/><line style="stroke: #A80036; stroke-width: 1.0;" x1="351.5" x2="341.5" y1="74.5" y2="74.5"/><text fill="#000000" font-family="sans-serif" font-size="13" lengthAdjust="spacingAndGlyphs" textLength="67" x="265.5" y="81.5669">Preferente</text><text fill="#000000" font-family="sans-serif" font-size="13" lengthAdjust="spacingAndGlyphs" textLength="24" x="265.5" y="96.6997">TEA</text><polygon fill="#FBFB77" filter="url(#f1c0xs95kq23ig)" points="6,64.5,6,104.7656,159,104.7656,159,74.5,149,64.5,6,64.5" style="stroke: #A80036; stroke-width: 1.0;"/><polygon fill="#FBFB77" points="6,64.5,6,104.7656,159,104.7656,159,88.5,194.2335,84.5,159,80.5,159,74.5,149,64.5,6,64.5" style="stroke: #A80036; stroke-width: 1.0;"/><line style="stroke: #A80036; stroke-width: 1.0;" x1="149" x2="149" y1="64.5" y2="74.5"/><line style="stroke: #A80036; stroke-width: 1.0;" x1="159" x2="149" y1="74.5" y2="74.5"/><text fill="#000000" font-family="sans-serif" font-size="13" lengthAdjust="spacingAndGlyphs" textLength="132" x="12" y="81.5669">ACNEE por trastorno</text><text fill="#000000" font-family="sans-serif" font-size="13" lengthAdjust="spacingAndGlyphs" textLength="79" x="12" y="96.6997">de conducta</text><!--link PT to AL--><!--link AL to Fisio--><!--link PT to ATE III--><!--link ATE III to Jefa de estudios--><!--
@startuml
:PT: 
:AL: 



:Fisio:
:ATE III:
:Jefa de estudios:

rectangle EOEP{
  :PTSC: 
  :Orientadora: 
}

:TIS:

note right of TIS
Preferente 
TEA
end note

note left of TIS
ACNEE por trastorno
de conducta
end note
@enduml

PlantUML version 1.2017.15(Mon Jul 03 18:45:34 CEST 2017)
(GPL source distribution)
Java Runtime: Java(TM) SE Runtime Environment
JVM: Java HotSpot(TM) 64-Bit Server VM
Java Version: 1.8.0_201-b09
Operating System: Linux
OS Version: 4.15.0-72-generic
Default Encoding: UTF-8
Language: en
Country: US
--></g></svg>